<?xml version="1.0" encoding="UTF-8"?><svg id="Layer_1" xmlns="http://www.w3.org/2000/svg" viewBox="0 0 175.77 18.64"><defs><style>.cls-1{fill:#000;stroke-width:0px;}</style></defs><path class="cls-1" d="M31.97,16.52h-.35c-.11,0-.21,0-.31-.02-.97-.05-1.93-.24-2.86-.56s-1.83-.73-2.69-1.23-1.66-1.04-2.41-1.62-1.43-1.16-2.04-1.74-1.13-1.11-1.55-1.58c-.79,1.05-1.61,1.98-2.45,2.8s-1.64,1.41-2.39,1.77c-.88.4-1.83.6-2.87.6-.6,0-1.17-.08-1.73-.25-.55-.16-1.04-.43-1.44-.79-.41-.36-.7-.83-.89-1.4-.01-.06-.02-.11-.03-.15s0-.07,0-.09c0-.09.02-.13.05-.13.07,0,.14.1.2.31.21.54.52.97.93,1.29.41.32.91.53,1.48.63.16.04.31.06.47.07.15.01.31.02.47.02.54,0,1.06-.08,1.56-.24.51-.16.97-.35,1.38-.58.66-.35,1.42-.93,2.27-1.72s1.7-1.68,2.53-2.67c-.44-.49-.85-.91-1.24-1.27s-.67-.55-.84-.56h-.04c-.21,0-.31.13-.31.4,0,.38.07.71.22,1s.37.5.66.63c.05.02.07.05.07.09,0,.09-.07.1-.2.04-.34-.17-.65-.41-.92-.71s-.41-.69-.41-1.17c0-.39.09-.63.27-.72s.33-.14.46-.14c.23-.01.56.19.99.59.43.41.92.95,1.48,1.62.75-.93,1.46-1.88,2.13-2.85.66-.97,1.18-1.89,1.56-2.74-1.41.01-2.88.09-4.41.24-1.53.15-3.04.36-4.52.64-1.49.28-2.89.62-4.21,1.01-1.32.4-2.49.85-3.51,1.35s-1.82,1.07-2.4,1.68-.88,1.28-.88,1.98c0,.35.11.62.32.8s.48.3.81.36c.33.05.66.08.99.08h.74c.1,0,.18.02.24.06.06.04.09.07.09.11,0,.05-.05.08-.15.09-.27.04-.54.06-.8.06-.49,0-.95-.06-1.38-.18s-.79-.32-1.06-.6c-.27-.28-.41-.65-.41-1.1,0-.69.27-1.35.79-1.96.53-.62,1.28-1.18,2.24-1.69s2.09-.97,3.39-1.37c1.3-.4,2.72-.74,4.26-1.02,1.54-.28,3.16-.49,4.84-.64s3.4-.22,5.14-.22h.04l.26-.69c.09-.23.15-.35.2-.35.04,0,.07.03.09.1s.04.14.04.23c0,.07,0,.12-.02.15-.04.09-.07.18-.11.27-.04.1-.08.2-.13.29.9,0,1.78.05,2.65.14.87.09,1.65.23,2.35.41.7.18,1.26.41,1.68.69.42.27.63.59.63.94,0,.3-.19.65-.56,1.02-.37.38-.98.78-1.84,1.21-.71.35-1.5.66-2.37.91-.87.26-1.76.46-2.68.62-.91.16-1.8.28-2.65.37-.09.01-.16.02-.23.02h-.19c-.24,0-.36-.04-.35-.11-.04.04-.07.08-.1.12s-.06.08-.08.12c.52.61,1.15,1.2,1.89,1.78s1.53,1.12,2.38,1.62c.85.5,1.7.95,2.56,1.35s1.67.73,2.44.99,1.44.42,2.01.49c.33.05.65.09.96.11s.6.04.87.04c.74,0,1.34-.1,1.79-.29s.68-.5.68-.91c0-.12-.03-.29-.09-.49,0-.04-.02-.07-.03-.11s0-.07,0-.11c0-.11.03-.16.09-.16s.12.07.16.22c.11.27.16.5.16.71,0,.35-.12.64-.37.87-.25.23-.57.4-.97.52s-.81.21-1.25.26-.85.07-1.22.07l-.02-.03ZM20.16,9.24c.13-.11.28-.16.44-.16.07.01.15.02.22.02h.24c.63,0,1.35-.08,2.15-.25.8-.16,1.61-.4,2.45-.7.83-.3,1.61-.66,2.31-1.08.63-.38,1.09-.72,1.36-1.02.27-.3.41-.58.41-.82,0-.27-.13-.5-.4-.69s-.62-.36-1.07-.5-.93-.25-1.47-.34-1.08-.15-1.64-.18-1.07-.06-1.54-.06h-.11c-.41.94-.91,1.91-1.48,2.91s-1.19,1.96-1.86,2.89v-.02Z"/><path class="cls-1" d="M34.98,13.43c-.37,0-.69-.09-.96-.27s-.41-.52-.41-1.02c0-.26.06-.52.14-.8.08-.27.17-.53.27-.78-.16.18-.4.43-.71.73-.32.3-.67.61-1.07.92s-.8.58-1.22.8c-.41.22-.8.33-1.17.33s-.66-.13-.9-.4c-.16-.17-.24-.4-.24-.69,0-.34.11-.71.34-1.11s.52-.8.9-1.18c.37-.38.77-.73,1.21-1.03.43-.3.86-.52,1.27-.66.57-.18,1.02-.27,1.35-.27.35,0,.61.09.78.28.16.19.27.46.32.81v.06c0,.09-.02.16-.06.21-.04.06-.08.08-.12.08-.06,0-.09-.05-.09-.15,0-.06,0-.15-.03-.27-.02-.12-.07-.23-.16-.33s-.25-.16-.47-.16c-.3,0-.65.09-1.04.26s-.79.4-1.19.69-.78.6-1.13.93c-.35.34-.65.67-.88,1s-.37.62-.4.88c0,.04-.02.07-.02.11v.09c0,.22.05.37.14.46s.21.13.36.13c.22,0,.47-.07.76-.2s.55-.29.8-.46c.24-.17.41-.3.51-.38.39-.33.83-.69,1.32-1.09.49-.4.92-.76,1.3-1.11.06-.04.13-.06.2-.06.17,0,.31.04.42.13.04.04.06.09.06.15s-.02.14-.05.23c-.03.09-.07.19-.12.3-.21.43-.38.81-.51,1.15-.13.34-.2.63-.2.86,0,.37.2.55.6.55.3,0,.76-.11,1.35-.33.65-.24,1.29-.58,1.94-1s1.23-.86,1.75-1.3c.13-.11.26-.2.37-.27s.23-.17.35-.29c.02-.01.06-.02.09-.02s.06.02.06.06-.02.09-.07.15c-.07.1-.25.28-.53.54s-.63.55-1.04.88c-.41.32-.86.63-1.34.93s-.97.53-1.45.7c-.18.06-.39.12-.63.17s-.47.08-.7.08l-.05-.02Z"/><path class="cls-1" d="M42,13.47c-.28,0-.55-.03-.79-.09-.25-.06-.48-.15-.69-.27-.29-.18-.5-.39-.63-.62s-.19-.48-.19-.75c0-.41.12-.83.37-1.25s.56-.8.93-1.14.74-.6,1.11-.77c.35-.17.69-.29,1-.37.31-.07.59-.11.85-.11.3,0,.55.05.75.16s.29.25.29.45c0,.18-.09.41-.28.68s-.41.52-.66.73c-.25.21-.46.34-.63.37-.04,0-.06-.04-.06-.11,0-.05.02-.1.07-.15.07-.06.18-.16.31-.3s.26-.29.37-.47c.12-.17.17-.32.17-.46,0-.19-.16-.29-.49-.29s-.68.1-1.1.3c-.41.2-.82.47-1.21.79-.39.33-.71.69-.97,1.07-.26.38-.38.76-.38,1.12,0,.28.09.5.27.67.18.16.4.28.68.35.27.07.56.1.85.1.15,0,.29,0,.44-.02.15-.01.28-.03.4-.05.63-.13,1.28-.37,1.93-.69s1.28-.71,1.89-1.13c.61-.43,1.16-.85,1.64-1.28.02-.01.06-.02.09-.02.05,0,.07.01.07.04,0,.04-.02.09-.07.15-.09.15-.26.33-.52.57-.26.23-.56.47-.9.71s-.66.47-.98.68-.58.38-.79.5c-.45.26-.96.47-1.52.64-.56.17-1.11.26-1.65.26h.03Z"/><path class="cls-1" d="M53.88,13.54c-.5,0-.9-.12-1.21-.36-.3-.24-.52-.55-.66-.95s-.2-.83-.2-1.29c0-.3.02-.61.07-.92s.12-.62.2-.92c-.21.22-.48.48-.82.79-.34.3-.71.62-1.1.95s-.76.64-1.12.94c-.36.3-.67.55-.92.76s-.42.33-.49.38c.05.09.07.16.07.24,0,.17-.1.26-.29.26-.09,0-.18-.03-.27-.09-.1-.06-.18-.16-.24-.29-.04-.1-.06-.21-.06-.33,0-.33.12-.76.35-1.3s.5-1.09.8-1.66c-.04.01-.08.02-.13.02-.1,0-.15-.02-.15-.07s.04-.1.11-.15c.27-.16.43-.3.49-.42.26-.54.57-1.09.93-1.66s.76-1.13,1.2-1.67c.43-.54.88-1.03,1.34-1.46s.92-.78,1.37-1.03.88-.38,1.28-.38c.26,0,.44.06.54.16s.16.25.16.42c0,.13-.03.27-.08.42-.05.15-.12.28-.19.4-.37.66-.88,1.3-1.54,1.93s-1.4,1.22-2.21,1.77c-.81.55-1.62,1.05-2.44,1.47-.22.43-.42.85-.6,1.26s-.32.78-.42,1.1c-.1.32-.13.55-.09.69.09-.05.27-.19.54-.42.27-.23.6-.51.98-.85.38-.33.77-.68,1.18-1.05s.8-.71,1.17-1.04.68-.6.92-.8c.15-.37.29-.55.44-.55s.33.18.57.55c.02.05.04.09.04.13,0,.07,0,.15-.04.23s-.05.14-.07.17c-.26.39-.45.8-.58,1.22s-.2.83-.2,1.22c0,.51.13.94.38,1.3s.66.53,1.21.53c.28,0,.59-.05.93-.15s.72-.26,1.13-.49c.54-.26,1.08-.57,1.63-.93s1.05-.73,1.5-1.1c.13-.11.26-.2.37-.27s.23-.17.36-.29c.02-.01.06-.02.09-.02s.05.02.05.06-.02.09-.07.15c-.07.09-.24.24-.49.48-.26.23-.57.49-.94.79s-.77.58-1.21.86-.87.52-1.31.73c-.24.12-.58.25-1,.37-.42.13-.84.19-1.25.19v-.03ZM48.89,9.06c.52-.32,1.08-.67,1.65-1.06.58-.39,1.15-.82,1.7-1.29s1.06-.97,1.51-1.52c.45-.54.8-1.11,1.06-1.71,0-.16-.07-.24-.22-.24s-.35.07-.6.22-.53.33-.83.56c-.3.23-.59.46-.87.71s-.51.48-.69.68c-.29.3-.59.63-.9.98s-.62.75-.94,1.22c-.13.21-.27.44-.42.68-.15.25-.29.5-.44.76h-.01Z"/><path class="cls-1" d="M61.35,13.26c-.27,0-.53-.04-.8-.12-.26-.08-.51-.21-.74-.39-.4-.33-.6-.72-.6-1.19,0-.41.14-.83.41-1.25.27-.42.61-.81,1.01-1.18s.8-.66,1.19-.88c.13-.09.31-.15.52-.19s.42-.06.61-.06h.21c.07,0,.12.01.17.04.3.09.53.21.67.38s.21.36.21.57c0,.3-.1.56-.29.78-.2.21-.44.39-.74.53-.3.14-.61.25-.93.34s-.62.14-.9.17c-.27.03-.48.05-.61.05-.28,0-.49-.02-.62-.05-.22.33-.35.63-.4.9-.01.04-.02.08-.02.12v.12c0,.27.11.5.34.7.23.2.61.3,1.16.3.5-.01,1.03-.13,1.58-.35s1.1-.5,1.64-.85,1.06-.71,1.54-1.1c.49-.38.92-.74,1.3-1.07.02-.02.05-.04.09-.04s.06.02.06.05,0,.09-.05.15c-.13.2-.37.43-.69.71-.33.28-.68.57-1.07.86-.38.29-.74.55-1.06.77s-.55.37-.69.44c-.37.2-.77.37-1.21.52s-.88.23-1.32.23h.03ZM60.53,10.63c.1,0,.21,0,.33-.02.12-.01.25-.03.38-.06.18-.04.41-.1.69-.19.28-.09.56-.21.85-.36s.53-.32.72-.52c.19-.2.29-.42.29-.67,0-.23-.15-.35-.44-.35-.23,0-.51.08-.84.24-.38.18-.78.45-1.2.8s-.78.72-1.07,1.11c.04.01.08.02.13.02h.16Z"/><path class="cls-1" d="M68.59,13.56c-.62,0-1.15-.15-1.58-.46-.43-.3-.66-.83-.67-1.57,0-.12.01-.29.04-.49.02-.21.05-.38.07-.53-.02.01-.06.02-.11.02-.1,0-.15-.04-.15-.11,0-.04.02-.08.07-.13.23-.15.37-.28.42-.4.19-.52.46-1.07.79-1.64.33-.57.7-1.12,1.11-1.65.41-.54.85-1.02,1.32-1.44.46-.43.92-.76,1.38-1.01s.89-.37,1.29-.37c.24,0,.42.05.52.16s.16.23.16.39c0,.38-.12.77-.37,1.19-.24.41-.56.83-.95,1.24s-.82.81-1.28,1.19c-.46.38-.92.73-1.38,1.04-.46.32-.87.58-1.23.8-.37.22-.65.37-.84.46-.13.34-.2.72-.2,1.13,0,.49.12.93.36,1.33s.63.59,1.18.59c.37,0,.77-.08,1.22-.23.45-.15.89-.34,1.34-.56.52-.27,1.03-.56,1.52-.87.49-.31.92-.61,1.29-.89.37-.28.64-.5.81-.66.05-.05.09-.07.11-.07.01,0,.02.01.02.04,0,.11-.05.21-.15.31-.51.51-1.07,1-1.67,1.45-.6.46-1.24.84-1.91,1.16-.4.18-.82.33-1.26.43s-.86.16-1.26.16h0ZM67.25,9.85c.09-.05.28-.17.58-.36s.67-.44,1.09-.74.86-.64,1.31-1.01.87-.75,1.27-1.15c.4-.4.72-.8.96-1.2s.37-.76.37-1.11c0-.11-.05-.16-.16-.16-.15,0-.35.08-.6.24s-.53.36-.83.6-.59.49-.87.75c-.28.26-.51.48-.69.68-.41.45-.84.97-1.29,1.56-.44.59-.82,1.22-1.12,1.89h-.02Z"/><path class="cls-1" d="M101.9,14.96c-.9,0-1.75-.08-2.54-.23s-1.47-.38-2.05-.68c-.19-.11-.29-.2-.29-.26,0-.02.02-.04.06-.04s.08,0,.14.02.12.03.21.06c.79.21,1.54.35,2.26.43.71.08,1.42.11,2.13.1.39-.01.88-.05,1.48-.13.6-.07,1.25-.18,1.97-.32s1.46-.31,2.21-.52c.76-.21,1.49-.45,2.2-.73s1.35-.6,1.91-.95c.57-.35,1.05-.76,1.43-1.22s.57-.93.57-1.43c0-.43-.16-.87-.49-1.32-.33-.46-.87-.91-1.63-1.36-.77-.48-1.69-.86-2.76-1.14-1.07-.29-2.25-.5-3.52-.63s-2.61-.2-4.01-.2-2.94.06-4.46.19-3.03.31-4.51.54c-1.49.23-2.91.51-4.28.82s-2.63.66-3.78,1.04c-1.16.38-2.17.77-3.03,1.19-.87.41-1.54.84-2.03,1.26-.49.43-.73.85-.73,1.28,0,.26.1.48.31.68.21.2.48.37.8.5s.68.23,1.04.3c.37.07.7.1,1.01.1.05,0,.17,0,.36.02.19.01.37.01.56,0h.04c.1,0,.18.02.26.05s.11.07.11.12c0,.06-.05.11-.16.15-.13.05-.3.08-.5.1s-.4.03-.59.03c-.39,0-.8-.06-1.23-.18s-.84-.29-1.22-.51c-.38-.22-.7-.47-.94-.76s-.37-.59-.37-.9c0-.6.31-1.17.94-1.72.63-.55,1.5-1.07,2.61-1.55,1.11-.49,2.4-.93,3.86-1.33s3.03-.74,4.72-1.02c1.68-.29,3.4-.51,5.16-.66s3.49-.23,5.2-.23c1.6,0,3.12.08,4.58.23s2.78.39,3.97.71,2.18.74,2.97,1.25c.68.44,1.23.95,1.65,1.53.41.58.62,1.26.62,2.03,0,.59-.17,1.11-.51,1.58-.34.47-.8.89-1.39,1.25-.58.37-1.25.68-1.98.96-.74.27-1.5.51-2.29.7s-1.57.35-2.33.47-1.46.2-2.09.26-1.16.08-1.57.08h-.06ZM93.86,15.11c-.16-.06-.31-.18-.45-.36s-.21-.33-.21-.47.05-.31.15-.52c.1-.21.22-.43.37-.66s.29-.44.42-.63c.13-.19.24-.34.31-.44.24-.33.53-.7.86-1.12s.67-.85,1.02-1.29.69-.85,1.01-1.22c.06-.07.09-.12.08-.13,0-.01-.04-.04-.1-.09-.02-.01-.04-.04-.04-.09,0-.09.03-.16.09-.22.28-.29.57-.53.86-.71s.45-.27.48-.27c.1,0,.22.08.36.25.14.16.21.3.21.39,0,.01-.06.09-.18.25-.12.15-.28.34-.48.57-.2.23-.41.46-.62.7s-.41.47-.59.68c-.61.67-1.2,1.37-1.77,2.11s-1.07,1.43-1.48,2.07c-.12.19-.18.32-.18.38,0,.04.02.06.06.06.06,0,.19-.06.4-.18.11-.06.3-.16.58-.29.27-.13.57-.29.89-.47.32-.18.58-.34.8-.48.07-.04.12-.04.14-.02.02.02,0,.07-.06.13-.09.09-.21.18-.37.29s-.34.23-.52.35c-.1.06-.25.17-.45.32s-.41.32-.63.5-.4.35-.55.51c-.07.09-.15.13-.22.13s-.12,0-.15-.02h-.04Z"/><path class="cls-1" d="M127.85,16.24c-.46,0-.91-.05-1.33-.16-.56-.17-1.06-.43-1.51-.77s-.78-.79-1-1.33c0-.06-.02-.11-.03-.15s0-.07,0-.09c0-.09.02-.13.05-.13.07,0,.14.1.2.31.21.54.52.97.93,1.29.41.32.91.53,1.48.63.16.04.31.06.47.07.15.01.31.02.47.02.54,0,1.06-.08,1.56-.24s.97-.35,1.38-.58c.52-.28,1.11-.7,1.75-1.25s1.3-1.19,1.98-1.92,1.34-1.5,1.98-2.31c.64-.82,1.22-1.63,1.75-2.45.52-.82.94-1.59,1.26-2.32-.34-.68-.83-1.17-1.46-1.45-.63-.29-1.35-.43-2.14-.43-.3,0-.62.02-.95.06-1.66.19-3.2.68-4.63,1.47-1.43.79-2.73,1.7-3.88,2.75-.39.35-.77.72-1.13,1.1-.37.38-.66.74-.89,1.08s-.34.64-.34.9c0,.07-.04.11-.11.11-.06,0-.11-.05-.15-.15-.04-.13-.07-.26-.1-.37s-.05-.21-.05-.29c0-.06,0-.13.04-.2.1-.3.28-.63.56-.98.27-.35.6-.69.98-1.04.38-.35.76-.67,1.15-.98,1.23-.96,2.56-1.77,4-2.42s2.92-1.06,4.44-1.22c.37-.04.72-.05,1.08-.05.79,0,1.52.11,2.18.34.66.23,1.22.61,1.65,1.14l.11-.33c.09-.23.15-.35.2-.35.04,0,.07.03.09.1.02.07.04.14.04.23,0,.07,0,.12-.02.15l-.2.51c.12.2.23.4.33.62.1.22.18.46.24.71.1.41.17.84.21,1.28.04.44.06.88.06,1.33,0,.37,0,.73-.04,1.09s-.05.72-.09,1.07c.3-.71.67-1.45,1.11-2.22.43-.77.91-1.52,1.43-2.25s1.08-1.37,1.67-1.94,1.2-1.01,1.84-1.32c.63-.32,1.27-.44,1.92-.38.22.01.42.09.6.25s.27.35.27.59c0,.09-.02.18-.06.29,0,.04-.03.07-.06.11s-.06.06-.08.06c-.04,0-.05-.07-.04-.2.05-.28-.03-.45-.25-.51-.21-.06-.45-.09-.7-.09-.49,0-1.01.18-1.57.55-.56.37-1.13.84-1.71,1.44-.58.59-1.14,1.24-1.67,1.96-.54.71-1.02,1.43-1.45,2.14s-.79,1.36-1.07,1.95c-.06.13-.12.27-.17.41-.06.14-.11.28-.17.41-.05.3-.1.6-.16.89s-.12.56-.18.81c-.02.1-.12.2-.29.31-.11.51-.16.97-.16,1.37,0,.13-.06.2-.15.2s-.13-.04-.13-.13c0-.06-.02-.12-.02-.18v-.18c0-.29.04-.6.11-.93h-.06c-.18,0-.25-.08-.2-.24.12-.45.24-.99.35-1.61s.2-1.28.28-1.98c.08-.7.12-1.4.12-2.11,0-.33,0-.65-.03-.97-.02-.32-.05-.63-.1-.93-.02-.17-.06-.33-.1-.48-.04-.15-.09-.3-.14-.45-.48,1.04-1.04,2.09-1.69,3.15s-1.35,2.07-2.1,3.02-1.51,1.78-2.27,2.5c-.77.72-1.51,1.25-2.23,1.59-.45.21-.96.38-1.54.52s-1.14.21-1.72.21v-.03Z"/><path class="cls-1" d="M150.11,13.43c-.37,0-.69-.09-.96-.27s-.41-.52-.41-1.02c0-.26.06-.52.14-.8.08-.27.17-.53.27-.78-.16.18-.4.43-.71.73-.32.3-.67.61-1.07.92-.4.31-.8.58-1.22.8-.41.22-.8.33-1.17.33s-.66-.13-.9-.4c-.16-.17-.24-.4-.24-.69,0-.34.11-.71.34-1.11s.52-.8.9-1.18c.37-.38.77-.73,1.21-1.03.43-.3.86-.52,1.27-.66.57-.18,1.02-.27,1.35-.27.35,0,.61.09.78.28.16.19.27.46.32.81v.06c0,.09-.02.16-.06.21-.04.06-.08.08-.12.08-.06,0-.09-.05-.09-.15,0-.06,0-.15-.03-.27-.02-.12-.07-.23-.16-.33s-.25-.16-.47-.16c-.3,0-.65.09-1.04.26s-.79.4-1.19.69-.78.6-1.13.93c-.35.34-.65.67-.88,1-.23.33-.37.62-.4.88,0,.04-.02.07-.02.11v.09c0,.22.05.37.14.46s.21.13.36.13c.22,0,.47-.07.76-.2s.55-.29.8-.46c.24-.17.41-.3.51-.38.39-.33.83-.69,1.32-1.09.49-.4.92-.76,1.3-1.11.06-.04.13-.06.2-.06.17,0,.31.04.42.13.04.04.06.09.06.15s-.02.14-.05.23c-.03.09-.07.19-.12.3-.21.43-.38.81-.51,1.15-.13.34-.2.63-.2.86,0,.37.2.55.6.55.3,0,.76-.11,1.35-.33.65-.24,1.29-.58,1.94-1s1.23-.86,1.75-1.3c.13-.11.26-.2.37-.27s.23-.17.35-.29c.02-.01.06-.02.09-.02s.06.02.06.06-.02.09-.07.15c-.07.1-.25.28-.53.54s-.63.55-1.04.88c-.41.32-.86.63-1.34.93s-.97.53-1.45.7c-.18.06-.39.12-.63.17s-.47.08-.7.08l-.05-.02Z"/><path class="cls-1" d="M154.41,13.56s-.16-.02-.33-.06c-.17-.04-.24-.11-.22-.19.06-.18.13-.37.22-.56.09-.19.16-.37.24-.54.16-.35.31-.71.46-1.08s.27-.73.38-1.1c.02-.1.07-.26.14-.48.07-.22.1-.42.1-.6,0-.23-.07-.35-.2-.35-.09.04-.15.1-.18.18-.04.09-.09.13-.15.13s-.09-.06-.09-.16c0-.17.08-.29.25-.35.16-.06.31-.09.43-.09.27,0,.45.07.55.22.1.15.15.33.15.55,0,.18-.02.37-.06.58-.04.2-.1.39-.16.56-.06.19-.16.44-.29.75-.13.3-.27.6-.42.9s-.27.52-.37.69c.51-.63,1.04-1.23,1.58-1.79.54-.56,1.07-1.06,1.58-1.49s.99-.77,1.44-1.01c.44-.24.82-.37,1.12-.37.1,0,.19.02.27.07.08.05.12.12.12.22,0,.05-.02.12-.06.22,0,.05-.05.09-.11.11-.06.02-.07,0-.04-.06.02-.05.04-.08.04-.09,0-.04-.05-.05-.15-.05-.21,0-.51.12-.9.36-.4.24-.83.55-1.32.92-.48.38-.96.78-1.43,1.21s-.9.83-1.26,1.21c-.37.38-.63.69-.79.93-.1.16-.19.3-.29.43-.1.13-.18.19-.24.19h-.01Z"/><path class="cls-1" d="M167.31,13.43c-.37,0-.69-.09-.96-.27s-.41-.52-.41-1.02c0-.26.06-.52.14-.8.08-.27.17-.53.27-.78-.16.18-.4.43-.71.73-.32.3-.67.61-1.07.92-.4.31-.8.58-1.22.8-.41.22-.8.33-1.17.33s-.66-.13-.9-.4c-.16-.17-.24-.4-.24-.69,0-.34.11-.71.34-1.11s.52-.8.9-1.18c.37-.38.77-.73,1.21-1.03.43-.3.86-.52,1.27-.66.57-.18,1.02-.27,1.35-.27.35,0,.61.09.78.28.16.19.27.46.32.81v.06c0,.09-.02.16-.06.21-.04.06-.08.08-.12.08-.06,0-.09-.05-.09-.15,0-.06,0-.15-.03-.27-.02-.12-.07-.23-.16-.33s-.25-.16-.47-.16c-.3,0-.65.09-1.04.26s-.79.4-1.19.69-.78.6-1.13.93c-.35.34-.65.67-.88,1-.23.33-.37.62-.4.88,0,.04-.02.07-.02.11v.09c0,.22.05.37.14.46s.21.13.36.13c.22,0,.47-.07.76-.2s.55-.29.8-.46c.24-.17.41-.3.51-.38.39-.33.83-.69,1.32-1.09.49-.4.92-.76,1.3-1.11.06-.04.13-.06.2-.06.17,0,.31.04.42.13.04.04.06.09.06.15s-.02.14-.05.23c-.03.09-.07.19-.12.3-.21.43-.38.81-.51,1.15-.13.34-.2.63-.2.86,0,.37.2.55.6.55.3,0,.76-.11,1.35-.33.65-.24,1.29-.58,1.94-1s1.23-.86,1.75-1.3c.13-.11.26-.2.37-.27s.23-.17.35-.29c.02-.01.06-.02.09-.02s.06.02.06.06-.02.09-.07.15c-.07.1-.25.28-.53.54s-.63.55-1.04.88c-.41.32-.86.63-1.34.93s-.97.53-1.45.7c-.18.06-.39.12-.63.17s-.47.08-.7.08l-.05-.02Z"/></svg>