<?xml version="1.0" encoding="UTF-8"?><svg id="Layer_2" xmlns="http://www.w3.org/2000/svg" viewBox="0 0 255.39 64.56"><defs><style>.cls-1{fill:#ffffff;stroke-width:0px;}</style></defs><g id="Layer_1-2"><path class="cls-1" d="M31.53,54.42c-.63.09-1.34.06-2.12-.09-2.92-.58-6.24-2.24-9.97-4.99-1.08-.78-2.32-1.91-3.73-3.37-1.26,3.46-1.98,5.82-2.15,7.11-.09.6-.39.93-.91,1.01-.6.09-.89-.2-.87-.84,0-.44.25-1.36.75-2.76.5-1.4,1.23-3.28,2.18-5.64-.77-.86-1.39-1.67-1.88-2.45-.66-.96-1.02-1.59-1.06-1.91-.04-.26.13-.59.49-.99.37-.4.69-.62.98-.67.06,0,.12.01.18.06.52.8,1.46,1.5,2.8,2.1,1.63-4.18,2.54-7.51,2.74-10-.03-.02-.08-.03-.14-.02l-.55.43c-.26.21-.47.33-.61.35-.11.02-.18-.03-.2-.15.23-.62.58-1.28,1.03-1.99l.9-1.4c.2-.26.4-.5.6-.72.2-.22.44-.39.72-.52.16-.08.29-.13.37-.14.4-.06.64.2.72.77.08.54-.01,1.36-.27,2.45-.57,2.39-1.92,6.21-4.07,11.46,1.56.51,2.85.71,3.86.59.23,0,.45-.02.65-.05.2-.03.4-.06.6-.09,3.1-.44,5.85-1.55,8.26-3.33,2.33-1.68,3.78-3.45,4.33-5.31.27-.95.35-1.85.23-2.71-.3-2.09-1.57-3.72-3.81-4.9-2.35-1.27-5.34-1.74-8.97-1.4-.49.04-.98.09-1.47.14-.49.06-.98.12-1.46.19-5.76.82-10.2,2.3-13.32,4.44-2.64,1.81-3.84,3.54-3.6,5.21.06.4.21.73.45.99.19.32.6.5,1.22.53.21.03.41.04.62.02.2-.01.38-.03.52-.05l.43-.06c.32-.04.48,0,.5.1.04.29-.23.47-.8.55-2.75.39-4.46.28-5.13-.32-.3-.28-.49-.63-.55-1.06-.27-1.89,1.23-3.89,4.5-5.99,3.89-2.45,9.35-4.18,16.37-5.18l1.81-.26c4.08-.49,7.55-.09,10.39,1.2,2.88,1.32,4.48,3.12,4.81,5.41.13.95.03,1.94-.32,2.98-.86,2.4-2.65,4.49-5.38,6.25-2.6,1.69-5.54,2.76-8.84,3.23-2.12.3-4.21.23-6.26-.21-.23.65-.44,1.14-.62,1.49,1.01,1.11,1.95,2.08,2.82,2.89.88.81,1.67,1.46,2.38,1.94,4.8,3.32,8.25,4.84,10.34,4.54.43-.06.98-.23,1.64-.5.41-.18.79-.49,1.14-.93.35-.44.58-.67.69-.69.34-.05.54.13.6.53.04.32-.53.81-1.72,1.47-.19.11-.37.23-.54.34-.17.11-.36.21-.55.3-.6.32-1.18.52-1.76.6ZM15.53,42.8c.04-.12.1-.25.17-.37.07-.13.12-.25.17-.37l-1.01-.34c.13.27.35.64.68,1.09Z"/><path class="cls-1" d="M46.6,48.46c-.57.08-1.12-.03-1.65-.34-.53-.3-.86-.62-.99-.96-.14-.39.18-1.9.98-4.53l-.79,1.56c-.34.69-.69,1.31-1.05,1.86-.36.55-.7,1.04-1.02,1.46-.94,1.19-1.8,1.75-2.57,1.68-1.78-.16-2.78-1.01-3-2.56-.18-1.23.19-2.89,1.09-4.98.29-.63.68-1.27,1.17-1.92.49-.65,1.07-1.31,1.74-1.96,1.72-1.68,3.47-2.64,5.25-2.9,1.09-.16,2.16-.02,3.22.42.35.18.54.41.58.66.03.2-.02.31-.13.33-.03,0-.06,0-.09-.03-.7-.57-1.55-.79-2.55-.65-1.18.17-2.39.79-3.64,1.88-1.25,1.08-2.31,2.45-3.19,4.1-1.24,2.37-1.77,4.23-1.57,5.58.11.77.45,1.22,1.03,1.35.73.19,2.01-1.3,3.84-4.45.76-1.25,1.38-2.36,1.87-3.34.49-.98.88-1.81,1.16-2.49.13-.34.42-.54.88-.61.86-.12,1.33.07,1.4.59.01.09,0,.15-.02.18-1.93,4.31-2.8,7.17-2.6,8.57.05.34.18.52.38.52.63.09,1.57-.5,2.82-1.76,1.51-1.5,2.86-3.41,4.06-5.71.25-.47.51-.73.77-.77.09-.01.13.01.14.07.02.14-.07.43-.27.87-.47,1.03-1.01,2.02-1.62,2.95-.61.94-1.31,1.83-2.1,2.67-1.11,1.24-2.05,2.05-2.81,2.42-.19.11-.43.19-.71.23Z"/><path class="cls-1" d="M56.43,46.93c-.6.09-1.23.03-1.89-.17-.66-.2-1.24-.56-1.76-1.09-.51-.53-.83-1.2-.95-2.04-.16-1.15.08-2.51.73-4.1.65-1.58,1.6-3.04,2.85-4.35.79-.84,1.46-1.44,2.03-1.78.81-.49,1.6-.8,2.37-.91.97-.14,1.78.07,2.41.62.33.25.51.53.56.84.07.52-.13.81-.62.88-.34.05-.63-.13-.87-.53-.29-.57-.76-.81-1.42-.72-.8.11-1.64.69-2.52,1.72-.99,1.05-1.84,2.41-2.53,4.09-.77,1.81-1.06,3.34-.88,4.6.18,1.23.66,1.95,1.45,2.16.27.08.61.09,1.01.03,1.38-.2,2.86-.99,4.44-2.39,1.74-1.51,3.17-3.33,4.26-5.48.25-.47.51-.73.77-.77.09-.01.13.01.14.07.02.14-.07.43-.27.87-1.03,2.22-2.63,4.23-4.8,6.04-1,.81-1.8,1.39-2.41,1.73-.61.33-1.32.56-2.12.67Z"/><path class="cls-1" d="M73.77,44.55c-.62.15-1.25.07-1.88-.24-.63-.31-.98-.7-1.05-1.19-.13-.89.48-2.71,1.81-5.48,1.46-3.07,2.16-4.83,2.1-5.26-.04-.26-.2-.37-.49-.33-.75.11-2.02,1.41-3.83,3.92-1.08,1.44-2.07,2.96-2.97,4.57-.9,1.6-1.72,3.28-2.46,5.02-.05.07-.2.12-.46.15-1.26.18-1.86.09-1.79-.27.3-1.39.71-2.95,1.22-4.69.51-1.74,1.14-3.69,1.89-5.84,2.47-7.08,4.26-11.18,5.35-12.3.31-.31.76-.5,1.36-.59,1-.14,1.53-.01,1.59.39.01.09-.06.21-.21.38-3.36,3.32-5.94,9.02-7.74,17.11.02-.03.16-.19.39-.47.24-.28.58-.7,1.03-1.26.47-.56.88-1.08,1.2-1.55.33-.47.61-.88.85-1.24,1.18-1.78,2.56-3.17,4.14-4.19.38-.23.82-.38,1.34-.45,1.18-.17,1.82.18,1.95,1.04.08.54-.1,1.23-.54,2.05-2.48,4.77-3.61,7.9-3.4,9.39.04.32.17.5.39.56.49.14,1.55-.5,3.19-1.9,1.92-1.68,3.49-3.64,4.69-5.89.25-.47.51-.73.77-.77.09-.01.13.01.14.07.02.14-.07.43-.27.87-.98,2.16-2.48,4.16-4.5,5.99-1.82,1.6-3.1,2.4-3.83,2.39Z"/><path class="cls-1" d="M83.56,43.06c-.83.12-1.59.02-2.28-.29-.91-.45-1.45-1.23-1.6-2.32-.17-1.17.13-2.68.89-4.51,1.03-2.4,2.73-4.62,5.11-6.65.6-.52,1.23-.83,1.89-.93.86-.12,1.51.06,1.97.55.27.28.44.62.5,1.03.17,1.2-.62,2.66-2.36,4.37-.52.48-1.07.94-1.67,1.36-.6.42-1.26.76-1.98,1.01l-1.79.65c-.51,1.33-.71,2.41-.59,3.24.16,1.15.92,1.62,2.27,1.43,1.06-.15,2.29-.78,3.68-1.88,1.87-1.47,3.38-3.35,4.55-5.65.18-.38.37-.58.57-.61.09-.01.14.04.15.15.02.14-.05.37-.21.69-2.18,4.58-5,7.32-8.44,8.22-.11.04-.22.07-.32.09-.1.01-.21.03-.32.05ZM82.63,36.53c.8-.11,1.78-.62,2.94-1.52,1.63-1.26,2.7-2.72,3.19-4.4.14-.43.2-.77.16-1.03-.04-.26-.16-.37-.36-.34-.37.05-1.07.62-2.08,1.7-.73.84-1.43,1.72-2.1,2.65-.67.93-1.3,1.9-1.89,2.92-.02.03.02.04.14.02Z"/><path class="cls-1" d="M95.07,41.91c-2.1-.14-3.25-.94-3.46-2.4-.12-.86-.03-2.15.28-3.86.23-1.29.58-2.78,1.05-4.47.48-1.69,1.1-3.59,1.89-5.69,1.87-5.15,3.45-7.92,4.74-8.31.11-.04.29-.09.55-.12,1.4-.2,2.2.36,2.39,1.68.26,1.81-.9,4.59-3.46,8.35-1.42,2.13-3.05,4.08-4.87,5.83-.8,3.04-1.1,5.23-.91,6.58.13.89.47,1.38,1.04,1.47.45.05,1.38-.6,2.79-1.98,1.62-1.58,2.94-3.4,3.96-5.48.16-.31.33-.49.5-.51.11-.02.18.03.2.15.02.11-.03.3-.14.55-.84,1.9-2.02,3.77-3.55,5.59-1.47,1.79-2.47,2.66-3,2.62ZM94.49,31.68c.92-.92,1.67-1.82,2.25-2.69l2.11-3.37c1.95-3.11,2.84-5.33,2.65-6.65-.04-.26-.2-.37-.49-.33-.49.07-1.16.88-2.02,2.44-.25.5-.52.99-.8,1.47-.28.48-.56.97-.84,1.48-.34.69-.65,1.36-.92,2.02-.27.65-.52,1.32-.75,1.99-.07.13-.2.5-.39,1.11-.19.61-.46,1.45-.8,2.53Z"/><path class="cls-1" d="M123.51,41.1c-.43.06-.91-.02-1.44-.23-.34-.16-.61-.26-.79-.33s-.31-.1-.37-.12c-1.1-.34-1.75-1.17-1.93-2.49-.16-1.09.02-2.52.53-4.29,1.63-5.41,4.02-10.97,7.19-16.68.43-.7.71-1.37.85-2.01.09-.39.26-.71.52-.95.3-.36.94-.82,1.91-1.37.97-.55,1.73-.86,2.28-.94.57-.08.86.08.86.49-.01.12-.33.47-.95,1.06-.41.41-.82.85-1.22,1.31-.4.47-.8.98-1.19,1.53-1.13,1.51-2.53,4.03-4.19,7.57-.92,1.97-1.75,4.01-2.51,6.1-.75,2.1-1.41,4.27-1.97,6.51-.23.85-.3,1.58-.22,2.18.14.97.69,1.55,1.65,1.74,5.68-.58,11.2-3.01,16.55-7.31,5.22-4.19,8.57-8.74,10.04-13.62.42-1.38.54-2.71.35-4-.38-2.67-1.92-4.74-4.62-6.23-2.73-1.51-6.23-2.14-10.49-1.88-.81.06-1.62.12-2.43.19-.81.07-1.6.16-2.37.27-6.22.89-11.09,2.62-14.61,5.2-3.05,2.22-4.4,4.5-4.07,6.85.32,2.24,2.06,3.58,5.23,4.04.85.03,1.29.09,1.3.21.02.17-.31.37-1.01.58-.2.06-.39.11-.57.15-.18.04-.36.07-.53.1-.14.02-.29.04-.43.06-.14.02-.29.03-.44.02-3.95-.4-6.09-1.82-6.44-4.26-.37-2.61,1.29-5.24,4.97-7.9,4.11-2.95,9.52-4.91,16.23-5.87,1.72-.25,3.49-.41,5.33-.5,4.97-.21,9.02.47,12.14,2.04,3.15,1.57,4.93,3.82,5.35,6.74.19,1.32.08,2.71-.33,4.17-1.29,4.69-4.7,9.21-10.22,13.56-5.63,4.43-11.61,7.2-17.94,8.3Z"/><path class="cls-1" d="M154.71,32.27c-.42.12-.91.14-1.46.05-.55-.08-.85-.25-.88-.51-.02-.17,0-.36.1-.56.09-.2.2-.42.35-.64.4-.67.64-1.09.72-1.26.08-.17.23-.27.46-.31.54-.08,1.09.17,1.64.73.03.02.05.08.07.17.03.2-.08.6-.31,1.19-.28.74-.5,1.12-.67,1.15Z"/><path class="cls-1" d="M202.67,32.06c-.34.05-.62.03-.84-.06-1.26-.43-2.03-1.61-2.3-3.53-.36-2.52-.02-6.4,1.02-11.64.46-2.14.9-4.3,1.34-6.46.44-2.17.88-4.34,1.33-6.51.01-.12.02-.22.02-.31,0-.09,0-.17-.02-.26-.09-.6-.43-.86-1.03-.77-.66.09-1.56.54-2.7,1.35-2.53,1.74-5.15,4.52-7.85,8.36-3.34,4.72-6.11,10.17-8.33,16.36.08.14.27.25.57.34.3.09.39.2.27.33.05.37-.52.64-1.73.82-1.06.15-1.61.07-1.66-.25-.12-.83.01-2.17.39-4.03.38-1.85,1.05-4.22,2.01-7.11l2.92-8.75c.6-1.72,1-3.2,1.19-4.42.19-1.23.24-2.18.14-2.87-.22-1.52-1.59-2.1-4.11-1.74-2.21.31-5.18,1.7-8.93,4.17-2.11,1.41-3.86,3.15-5.27,5.22-1.56,2.21-2.22,4.15-1.98,5.81.15,1.06.7,1.88,1.64,2.46.95.58,2.06.78,3.35.6.49-.07.95-.18,1.4-.33l.59-.17c-1.65.91-2.83,1.41-3.51,1.51-.86.12-1.7.1-2.51-.08-1.57-.33-2.47-1.36-2.72-3.08-.19-1.32.02-2.71.63-4.17.52-1.3,1.61-2.85,3.29-4.64,1.74-1.92,3.7-3.56,5.88-4.92,2.71-1.73,5.42-2.79,8.15-3.18,2.72-.39,4.72.19,5.99,1.73.08.16.13.33.16.5.09.66-.06,1.87-.45,3.64-.39,1.77-1.05,4.11-1.98,7.02l-3.83,11.95c.07.08,1.23-2.28,3.47-7.07,1.17-2.48,3.47-5.69,6.92-9.63,3.32-3.81,5.68-6.01,7.08-6.62.36-.17.78-.29,1.27-.36,1.03-.15,1.96.02,2.77.5.81.48,1.27,1.04,1.36,1.67.03.23,0,.42-.09.58-1.68,3.57-2.91,7.87-3.69,12.9-.35,2.27-.56,4.34-.63,6.21-.07,1.87,0,3.52.2,4.95.31,2.18.9,3.15,1.77,2.91.27-.16.61-.33,1.02-.52.41-.19.9-.43,1.48-.72.08-.04.19-.07.34-.09.43-.06.1.29-.99,1.06-1.06.77-2.01,1.21-2.84,1.33Z"/><path class="cls-1" d="M216,24.33c-.57.08-1.12-.03-1.65-.34-.53-.3-.86-.62-.99-.96-.14-.39.18-1.9.98-4.53l-.79,1.56c-.34.69-.69,1.31-1.05,1.86-.36.55-.7,1.04-1.02,1.46-.94,1.19-1.8,1.75-2.57,1.68-1.78-.16-2.78-1.01-3-2.56-.18-1.23.19-2.89,1.09-4.98.29-.63.68-1.27,1.17-1.92.49-.65,1.07-1.31,1.74-1.96,1.72-1.68,3.47-2.64,5.25-2.9,1.09-.16,2.16-.02,3.22.42.35.18.54.41.58.66.03.2-.02.31-.13.33-.03,0-.06,0-.09-.03-.7-.57-1.55-.79-2.55-.65-1.18.17-2.39.79-3.64,1.88-1.25,1.08-2.31,2.45-3.19,4.1-1.24,2.37-1.77,4.23-1.57,5.58.11.77.45,1.22,1.03,1.35.73.19,2.01-1.3,3.84-4.45.76-1.25,1.38-2.36,1.87-3.34.49-.98.88-1.81,1.16-2.49.13-.34.42-.54.88-.61.86-.12,1.33.07,1.4.59.01.09,0,.15-.02.18-1.93,4.31-2.8,7.17-2.6,8.57.05.34.18.52.38.52.63.09,1.57-.5,2.82-1.76,1.51-1.5,2.86-3.41,4.06-5.71.25-.47.51-.73.77-.77.09-.01.13.01.14.07.02.14-.07.43-.27.87-.47,1.03-1.01,2.02-1.62,2.95-.61.94-1.31,1.83-2.1,2.67-1.11,1.24-2.05,2.05-2.81,2.42-.19.11-.43.19-.71.23Z"/><path class="cls-1" d="M224.52,23.16c-.16.08-.92-.19-2.27-.82-.16-.12-.27-.38-.33-.79-.27-1.89.1-5.16,1.1-9.81.24-1.18.71-1.81,1.4-1.91.34-.05.67.06.99.32.31.26.44.49.38.67-.22.7-.45,1.51-.69,2.4-.24.9-.48,1.89-.74,2.98-.62,2.63-.86,4.42-.73,5.37.06.4.21.58.47.55.11-.02.22-.08.33-.18.42-.35,1.01-1.05,1.76-2.09.76-1.04,1.69-2.42,2.79-4.13,2.4-3.7,3.89-6.43,4.49-8.19.29-.8.66-1.23,1.09-1.3.37-.05.59.15.66.61.06.43-.1.95-.48,1.56-.88,1.41-1.83,2.9-2.85,4.46-1.02,1.56-2.1,3.2-3.23,4.91-2.55,3.67-3.93,5.46-4.15,5.37Z"/><path class="cls-1" d="M244.98,20.2c-.57.08-1.12-.03-1.65-.34-.53-.3-.86-.62-.99-.96-.14-.39.18-1.9.98-4.53l-.79,1.56c-.34.69-.69,1.31-1.05,1.86-.36.55-.7,1.04-1.02,1.46-.94,1.19-1.8,1.75-2.57,1.68-1.78-.16-2.78-1.01-3-2.56-.18-1.23.19-2.89,1.09-4.98.29-.63.68-1.27,1.17-1.92.49-.65,1.07-1.31,1.74-1.96,1.72-1.68,3.47-2.64,5.25-2.9,1.09-.15,2.16-.02,3.22.42.35.18.54.41.58.66.03.2-.02.31-.13.33-.03,0-.06,0-.09-.03-.7-.57-1.55-.79-2.55-.65-1.18.17-2.39.79-3.64,1.88-1.25,1.08-2.31,2.45-3.19,4.1-1.24,2.37-1.77,4.23-1.57,5.58.11.77.45,1.22,1.03,1.35.73.19,2.01-1.3,3.84-4.45.76-1.25,1.38-2.36,1.87-3.34.49-.98.88-1.81,1.16-2.49.13-.34.42-.54.88-.61.86-.12,1.33.07,1.4.59.01.09,0,.15-.02.18-1.93,4.31-2.8,7.17-2.6,8.57.05.34.18.52.38.52.63.09,1.57-.5,2.82-1.76,1.51-1.5,2.86-3.41,4.06-5.71.25-.48.51-.73.77-.77.09-.01.13.01.14.07.02.14-.07.43-.27.87-.47,1.03-1.01,2.02-1.62,2.95-.61.94-1.31,1.83-2.1,2.67-1.11,1.24-2.05,2.05-2.81,2.42-.19.11-.43.19-.71.23Z"/><path class="cls-1" d="M131.8,54.68c.56-.99,1.32-1.77,2.29-2.33.97-.56,2.04-.84,3.22-.84,1.39,0,2.6.33,3.63,1,1.03.67,1.79,1.62,2.26,2.85h-1.99c-.35-.77-.86-1.36-1.52-1.77-.66-.41-1.46-.62-2.38-.62s-1.68.21-2.39.62c-.71.41-1.26,1-1.66,1.76s-.6,1.65-.6,2.67.2,1.89.6,2.65c.4.76.95,1.35,1.66,1.76.71.41,1.5.62,2.39.62s1.72-.2,2.38-.61c.66-.41,1.17-.99,1.52-1.76h1.99c-.47,1.22-1.23,2.16-2.26,2.82-1.03.66-2.24.99-3.63.99-1.18,0-2.25-.28-3.22-.83-.97-.55-1.73-1.32-2.29-2.31-.56-.98-.84-2.1-.84-3.34s.28-2.36.84-3.35Z"/><path class="cls-1" d="M145.67,56.67c.41-.77.98-1.37,1.71-1.8s1.53-.64,2.42-.64,1.64.19,2.28.57c.64.38,1.12.85,1.44,1.42v-1.82h1.68v10h-1.68v-1.86c-.33.58-.82,1.07-1.47,1.45-.65.38-1.41.57-2.27.57s-1.69-.22-2.41-.66c-.72-.44-1.28-1.05-1.7-1.84-.41-.79-.62-1.69-.62-2.7s.21-1.92.62-2.69ZM153.05,57.41c-.3-.56-.71-.99-1.23-1.29-.52-.3-1.09-.45-1.71-.45s-1.19.15-1.7.44-.92.72-1.22,1.28c-.3.56-.46,1.22-.46,1.97s.15,1.43.46,2c.3.57.71,1,1.22,1.3.51.3,1.08.45,1.7.45s1.19-.15,1.71-.45c.52-.3.93-.73,1.23-1.3.3-.57.46-1.23.46-1.98s-.15-1.41-.46-1.97Z"/><path class="cls-1" d="M163.58,64.4l-3.92-4.41v4.41h-1.66v-13.5h1.66v7.94l3.85-4.43h2.32l-4.71,4.98,4.73,5.02h-2.26Z"/><path class="cls-1" d="M176.46,60.02h-7.99c.06.99.4,1.75,1.01,2.31.61.55,1.36.83,2.23.83.72,0,1.32-.17,1.8-.5s.82-.78,1.01-1.34h1.79c-.27.96-.8,1.74-1.61,2.34-.8.6-1.8.9-2.99.9-.95,0-1.8-.21-2.54-.64-.75-.43-1.33-1.03-1.76-1.82-.43-.78-.64-1.69-.64-2.73s.21-1.94.62-2.72c.41-.78.99-1.38,1.74-1.8s1.61-.63,2.58-.63,1.79.21,2.52.62c.73.41,1.29.98,1.69,1.71.4.72.59,1.54.59,2.45,0,.32-.02.65-.05,1ZM174.38,57.04c-.28-.46-.66-.8-1.14-1.04-.48-.24-1.01-.36-1.6-.36-.84,0-1.55.27-2.14.8s-.93,1.28-1.01,2.23h6.31c0-.63-.14-1.18-.42-1.63Z"/><path class="cls-1" d="M190.99,58.04c-.72.7-1.83,1.05-3.31,1.05h-2.44v5.31h-1.66v-12.71h4.1c1.44,0,2.53.35,3.27,1.04s1.12,1.59,1.12,2.68-.36,1.94-1.09,2.64ZM189.72,57.12c.44-.4.66-.97.66-1.71,0-1.57-.9-2.35-2.7-2.35h-2.44v4.67h2.44c.92,0,1.61-.2,2.04-.6Z"/><path class="cls-1" d="M195.95,63.92c-.76-.43-1.36-1.03-1.79-1.82-.43-.78-.65-1.69-.65-2.73s.22-1.92.67-2.71c.44-.78,1.05-1.39,1.82-1.81.77-.42,1.62-.63,2.57-.63s1.81.21,2.57.63,1.37,1.02,1.82,1.8c.44.78.67,1.68.67,2.72s-.23,1.94-.68,2.73c-.46.78-1.07,1.39-1.85,1.82s-1.64.64-2.59.64-1.79-.21-2.54-.64ZM200.17,62.68c.52-.28.95-.7,1.27-1.26.32-.56.48-1.24.48-2.04s-.16-1.48-.47-2.04c-.32-.56-.73-.98-1.24-1.25-.51-.27-1.06-.41-1.66-.41s-1.16.14-1.67.41c-.5.27-.91.69-1.21,1.25-.3.56-.46,1.24-.46,2.04s.15,1.5.45,2.06c.3.56.7.98,1.2,1.25.5.27,1.05.41,1.64.41s1.16-.14,1.68-.42Z"/><path class="cls-1" d="M208.72,54.69c.54-.32,1.2-.47,1.98-.47v1.71h-.44c-1.86,0-2.79,1.01-2.79,3.03v5.44h-1.66v-10h1.66v1.62c.29-.57.71-1.02,1.25-1.33Z"/><path class="cls-1" d="M214.64,55.77v5.89c0,.49.1.83.31,1.03.21.2.57.3,1.08.3h1.22v1.4h-1.5c-.92,0-1.62-.21-2.08-.64-.46-.43-.69-1.12-.69-2.1v-5.89h-1.3v-1.37h1.3v-2.52h1.66v2.52h2.61v1.37h-2.61Z"/><path class="cls-1" d="M223.32,55.77h-2.1v8.63h-1.66v-8.63h-1.3v-1.37h1.3v-.71c0-1.12.29-1.94.87-2.45.58-.52,1.5-.78,2.78-.78v1.39c-.73,0-1.24.14-1.54.43-.3.29-.45.76-.45,1.41v.71h2.1v1.37Z"/><path class="cls-1" d="M227.07,63.92c-.76-.43-1.36-1.03-1.79-1.82-.43-.78-.65-1.69-.65-2.73s.22-1.92.67-2.71c.44-.78,1.05-1.39,1.82-1.81.77-.42,1.62-.63,2.57-.63s1.81.21,2.57.63,1.37,1.02,1.82,1.8c.44.78.67,1.68.67,2.72s-.23,1.94-.68,2.73c-.46.78-1.07,1.39-1.85,1.82s-1.64.64-2.59.64-1.79-.21-2.54-.64ZM231.3,62.68c.52-.28.95-.7,1.27-1.26.32-.56.48-1.24.48-2.04s-.16-1.48-.47-2.04c-.32-.56-.73-.98-1.24-1.25-.51-.27-1.06-.41-1.66-.41s-1.16.14-1.67.41c-.5.27-.91.69-1.21,1.25-.3.56-.46,1.24-.46,2.04s.15,1.5.45,2.06c.3.56.7.98,1.2,1.25.5.27,1.05.41,1.64.41s1.16-.14,1.68-.42Z"/><path class="cls-1" d="M238.59,50.9v13.5h-1.66v-13.5h1.66Z"/><path class="cls-1" d="M241.47,52.45c-.22-.22-.33-.49-.33-.8s.11-.58.33-.8.49-.33.8-.33.56.11.78.33c.21.22.32.49.32.8s-.11.58-.32.8c-.21.22-.47.33-.78.33s-.58-.11-.8-.33ZM243.08,54.4v10h-1.66v-10h1.66Z"/><path class="cls-1" d="M247.72,63.92c-.76-.43-1.36-1.03-1.79-1.82-.43-.78-.65-1.69-.65-2.73s.22-1.92.67-2.71c.44-.78,1.05-1.39,1.82-1.81.77-.42,1.62-.63,2.57-.63s1.81.21,2.57.63,1.37,1.02,1.82,1.8c.44.78.67,1.68.67,2.72s-.23,1.94-.68,2.73c-.46.78-1.07,1.39-1.85,1.82s-1.64.64-2.59.64-1.79-.21-2.54-.64ZM251.95,62.68c.52-.28.95-.7,1.27-1.26.32-.56.48-1.24.48-2.04s-.16-1.48-.47-2.04c-.32-.56-.73-.98-1.24-1.25-.51-.27-1.06-.41-1.66-.41s-1.16.14-1.67.41c-.5.27-.91.69-1.21,1.25-.3.56-.46,1.24-.46,2.04s.15,1.5.45,2.06c.3.56.7.98,1.2,1.25.5.27,1.05.41,1.64.41s1.16-.14,1.68-.42Z"/></g></svg>