<?xml version="1.0" encoding="UTF-8"?><svg id="Layer_2" xmlns="http://www.w3.org/2000/svg" viewBox="0 0 1440 40"><defs><style>.cls-1{fill:#fff;stroke-width:0px;}</style></defs><g id="Layer_1-2"><path class="cls-1" d="M0,0c45,0,45,26.85,90,26.85S135,0,180,0s45,26.85,90,26.85S315,0,360,0s45,26.85,90,26.85S494.99,0,539.99,0s45,26.85,90,26.85S674.99,0,719.99,0s45,26.85,90,26.85S854.98,0,899.99,0s45,26.85,90,26.85S1034.99,0,1079.99,0s45,26.85,90,26.85S1214.99,0,1259.99,0s45,26.85,90.01,26.85S1395,0,1440,0v40H0V0Z"/></g></svg>